<svg width="130" height="130" viewBox="0 0 130 130" fill="none" xmlns="http://www.w3.org/2000/svg">
<path d="M127.537 59.2109L70.7886 2.46289C67.5132 -0.8125 62.2319 -0.8125 58.9565 2.46289L47.1753 14.2441L62.1304 29.1992C65.6089 28.0312 69.5952 28.8184 72.3628 31.5859C75.1558 34.3789 75.9175 38.3906 74.7241 41.8691L89.146 56.291C92.6245 55.0977 96.6616 55.8594 99.4292 58.6523C103.314 62.5371 103.314 68.8594 99.4292 72.7441C95.5444 76.6289 89.2222 76.6289 85.3374 72.7441C82.4175 69.8242 81.6812 65.5078 83.1792 61.9023L69.7476 48.4707V83.8398C70.687 84.3223 71.6011 84.9316 72.3882 85.7187C76.2729 89.6035 76.2729 95.9004 72.3882 99.8105C68.5034 103.695 62.1812 103.695 58.2964 99.8105C54.4116 95.9258 54.4116 89.6035 58.2964 85.7187C59.2612 84.7539 60.3784 84.043 61.5464 83.5351V47.8359C60.353 47.3535 59.2612 46.6172 58.2964 45.6523C55.3511 42.707 54.6401 38.3906 56.1382 34.7598L41.4116 20.0078L2.4624 58.957C-0.812988 62.2324 -0.812988 67.5391 2.4624 70.7891L59.2104 127.537C62.4858 130.812 67.7671 130.812 71.0425 127.537L127.537 71.043C130.812 67.793 130.812 62.4863 127.537 59.2109Z" fill="#DE4C36"/>
</svg>
