<svg width="130" height="130" viewBox="0 0 130 130" fill="none" xmlns="http://www.w3.org/2000/svg">
<path d="M0 0H130V130H0V0Z" fill="#F7DF1E"/>
<path d="M34.1818 108.638L44.1304 102.617C46.0496 106.02 47.7955 108.899 51.9834 108.899C55.9977 108.899 58.5286 107.329 58.5286 101.221V59.6826H70.7453V101.393C70.7453 114.047 63.3283 119.806 52.5071 119.806C42.7342 119.806 37.0612 114.745 34.1816 108.636" fill="black"/>
<path d="M77.3809 107.328L87.3281 101.569C89.9467 105.845 93.35 108.987 99.3709 108.987C104.433 108.987 107.661 106.456 107.661 102.965C107.661 98.7765 104.345 97.2929 98.7599 94.8503L95.7065 93.5404C86.8923 89.7888 81.0454 85.0766 81.0454 75.1283C81.0454 65.9655 88.0264 58.9841 98.9349 58.9841C106.701 58.9841 112.286 61.6896 116.3 68.7581L106.788 74.8662C104.694 71.1142 102.425 69.6309 98.9351 69.6309C95.3572 69.6309 93.0882 71.8997 93.0882 74.8662C93.0882 78.5314 95.3572 80.0152 100.592 82.2843L103.646 83.5931C114.031 88.0439 119.878 92.5811 119.878 102.791C119.878 113.787 111.239 119.807 99.6329 119.807C88.2887 119.807 80.9583 114.397 77.3811 107.328" fill="black"/>
</svg>
