<svg width="130" height="130" viewBox="0 0 130 130" fill="none" xmlns="http://www.w3.org/2000/svg">
<path d="M30.6719 46.2363H55.1992V48.1914H32.9316V62.8672H53.8789V64.8223H32.9316V80.9199H55.4531V82.875H30.6719V46.2363ZM57.3828 46.2363H59.998L71.5508 62.334L83.3574 46.2363L99.4043 25.7715L73.0234 64.0352L86.6074 82.8496H83.8906L71.5254 65.7109L59.1094 82.8496H56.4434L70.1289 64.0352L57.3828 46.2363ZM87.5723 48.1914V46.2363H115.502V48.1914H102.629V82.8496H100.369V48.1914H87.5723ZM0 46.2363H2.81836L41.5645 104.203L25.543 82.8496L2.36133 49.0039L2.25977 82.8496H0V46.2363ZM115.299 80.3105C114.842 80.3105 114.486 79.9551 114.486 79.498C114.486 79.041 114.842 78.6855 115.299 78.6855C115.756 78.6855 116.111 79.041 116.111 79.498C116.086 79.9551 115.756 80.3105 115.299 80.3105ZM117.508 78.1777H118.701C118.727 78.8379 119.184 79.2695 119.895 79.2695C120.682 79.2695 121.113 78.7871 121.113 77.9238V72.3379H122.332V77.9238C122.332 79.5234 121.418 80.4375 119.895 80.4375C118.473 80.4121 117.508 79.5234 117.508 78.1777ZM123.957 78.1016H125.176C125.277 78.8633 126.014 79.3203 127.055 79.3203C128.045 79.3203 128.756 78.8125 128.756 78.1016C128.756 77.4922 128.299 77.1367 127.258 76.8828L126.242 76.6289C124.82 76.2988 124.16 75.6133 124.16 74.4453C124.16 73.0488 125.303 72.1094 127.029 72.1094C128.629 72.1094 129.797 73.0488 129.873 74.3691H128.68C128.553 73.6328 127.943 73.1758 127.004 73.1758C126.039 73.1758 125.379 73.6328 125.379 74.3437C125.379 74.9023 125.785 75.2324 126.826 75.4609L127.689 75.6641C129.314 76.0449 129.975 76.7051 129.975 77.8984C129.975 79.4219 128.807 80.3613 126.928 80.3613C125.201 80.4121 124.033 79.5234 123.957 78.1016Z" fill="black"/>
</svg>
