<svg width="130" height="130" viewBox="0 0 130 130" fill="none" xmlns="http://www.w3.org/2000/svg">
<g clip-path="url(#clip0)">
<path d="M65 130C63.1973 130 61.5469 129.518 59.9727 128.68L44.0781 119.234C41.6914 117.914 42.8848 117.432 43.5957 117.203C46.8203 116.137 47.4297 115.883 50.7559 113.979C51.1113 113.75 51.5938 113.852 51.9492 114.105L64.1367 121.393C64.6191 121.621 65.2031 121.621 65.5586 121.393L113.242 93.8184C113.725 93.5898 113.953 93.1074 113.953 92.498V37.4512C113.953 36.8418 113.725 36.3848 113.242 36.1309L65.6094 8.6582C65.127 8.42969 64.543 8.42969 64.1875 8.6582L16.5039 36.1309C16.0215 36.3594 15.793 36.9688 15.793 37.4512V92.498C15.793 92.9805 16.0215 93.5645 16.5039 93.8184L29.5293 101.334C36.5879 104.914 41.0059 100.725 41.0059 96.5605V42.2246C41.0059 41.5137 41.6152 40.8027 42.4277 40.8027H48.5215C49.2324 40.8027 49.9434 41.4121 49.9434 42.2246V96.5605C49.9434 106.006 44.8145 111.49 35.8516 111.49C33.1094 111.49 30.9512 111.49 24.8574 108.494L12.3145 101.334C9.2168 99.5312 7.28711 96.2051 7.28711 92.625V37.5527C7.28711 33.9727 9.19141 30.6211 12.3145 28.8438L59.9727 1.24414C62.9688 -0.431641 67.0313 -0.431641 70.002 1.24414L117.66 28.8438C120.758 30.6465 122.688 33.9727 122.688 37.5527V92.5996C122.688 96.1797 120.783 99.5312 117.66 101.309L70.0273 128.934C68.4531 129.645 66.6758 130 65 130ZM79.7012 92.1426C58.8047 92.1426 54.5137 82.5957 54.5137 74.4707C54.5137 73.7598 55.123 73.0488 55.9355 73.0488H62.1562C62.8672 73.0488 63.4766 73.5312 63.4766 74.2422C64.4414 80.5644 67.1836 83.6875 79.8281 83.6875C89.8574 83.6875 94.1484 81.4277 94.1484 76.0449C94.1484 72.9473 92.9551 70.6621 77.3145 69.1133C64.2891 67.793 56.1641 64.9238 56.1641 54.5391C56.1641 44.8652 64.2891 39.127 77.8984 39.127C93.1836 39.127 100.699 44.3828 101.664 55.8594C101.664 56.2148 101.537 56.5703 101.309 56.9258C101.08 57.1543 100.699 57.4082 100.344 57.4082H94.123C93.5137 57.4082 92.9297 56.9258 92.8027 56.3418C91.3809 49.7656 87.6738 47.6328 77.873 47.6328C66.8789 47.6328 65.584 51.4668 65.584 54.3105C65.584 57.7637 67.1328 58.8555 81.9355 60.7598C96.6367 62.6641 103.543 65.4062 103.543 75.6895C103.467 86.1758 94.8594 92.1426 79.7012 92.1426Z" fill="#539E43"/>
</g>
<defs>
<clipPath id="clip0">
<rect width="130" height="130" fill="white"/>
</clipPath>
</defs>
</svg>
