<svg width="130" height="130" viewBox="0 0 130 130" fill="none" xmlns="http://www.w3.org/2000/svg">
<path d="M0.382812 64.8588C0.382812 75.7195 9.9105 85.8578 24.931 91.5727C21.9314 108.381 24.3937 121.928 32.6169 127.207C41.0691 132.633 53.6613 128.877 65.6132 117.248C77.2634 128.407 89.0376 132.799 97.2537 127.505C105.698 122.064 108.266 107.598 105.184 90.2648C120.829 84.5075 129.58 75.8625 129.58 64.8588C129.58 54.2503 120.035 45.0728 105.217 39.3947C108.535 21.3456 105.724 8.12685 97.1597 2.63011C88.9035 -2.66937 76.9923 1.94959 65.1709 13.4009C52.8722 1.24646 41.0787 -2.4642 32.524 3.04781C24.2754 8.36254 21.9218 22.1567 24.931 39.2754C10.4173 44.9078 0.382812 54.2932 0.382812 64.8588Z" fill="white"/>
<path d="M102.079 45.0329C100.857 44.5666 99.6258 44.1347 98.385 43.7374C98.5908 42.8068 98.7811 41.8719 98.9558 40.9334C101.752 25.8263 99.9237 13.656 93.6809 9.64974C87.6955 5.80739 77.9063 9.81365 68.0196 19.3901C67.0454 20.3359 66.0928 21.309 65.1628 22.3083C64.54 21.6438 63.9061 20.9922 63.2616 20.3538C52.9001 10.1132 42.5143 5.79835 36.2781 9.81648C30.2984 13.6696 28.5272 25.1113 31.0443 39.4282C31.2947 40.846 31.5775 42.2565 31.8923 43.6583C30.4228 44.1229 29.0035 44.618 27.6457 45.1448C15.4983 49.8587 7.74023 57.2473 7.74023 64.9105C7.74023 72.8258 16.068 80.7648 28.7212 85.5782C29.7471 85.9667 30.7817 86.3267 31.8238 86.6578C31.4852 88.168 31.1847 89.6885 30.9224 91.2174C28.5226 105.286 30.3969 116.456 36.3609 120.285C42.5209 124.239 52.8595 120.175 62.927 110.38C63.7227 109.606 64.5215 108.784 65.3212 107.924C66.3286 109.005 67.3629 110.056 68.4228 111.073C78.1744 120.414 87.8052 124.185 93.7641 120.346C99.9186 116.38 101.918 104.38 99.3214 89.78C99.1234 88.6649 98.8923 87.526 98.6334 86.3661C99.3595 86.1276 100.072 85.8812 100.767 85.6246C113.921 80.7739 122.479 72.9315 122.479 64.9105C122.479 57.2196 114.471 49.7813 102.079 45.0329Z" fill="#53C1DE"/>
<path d="M99.2246 80.4463C98.5975 80.6775 97.9536 80.9007 97.2975 81.1172C95.8453 76.0003 93.8852 70.559 91.4874 64.9379C93.776 59.4496 95.6599 54.0783 97.0716 48.9942C98.2451 49.3729 99.3846 49.7714 100.482 50.1925C111.1 54.2603 117.577 60.276 117.577 64.9107C117.577 69.8479 110.582 76.2575 99.2251 80.4463H99.2246ZM94.5123 90.8401C95.6604 97.296 95.8245 103.133 95.0638 107.696C94.3803 111.796 93.0062 114.529 91.3071 115.624C87.6912 117.954 79.958 114.926 71.6191 106.938C70.6629 106.022 69.6996 105.045 68.7338 104.01C71.9669 100.074 75.198 95.498 78.3514 90.4167C83.8985 89.869 89.1389 88.9732 93.8913 87.7506C94.1249 88.8019 94.3331 89.8323 94.5123 90.8401ZM46.8561 115.222C43.3234 116.611 40.5097 116.65 38.8091 115.559C35.1896 113.236 33.6855 104.266 35.7375 92.235C35.9815 90.8133 36.2609 89.3993 36.5754 87.9948C41.275 89.1518 46.4773 89.9844 52.0376 90.4863C55.2118 95.4585 58.5363 100.029 61.8867 104.031C61.1747 104.798 60.4458 105.545 59.7007 106.272C55.2489 110.603 50.7879 113.676 46.8566 115.222H46.8561ZM30.3057 80.4158C24.7108 78.2872 20.0904 75.521 16.9233 72.5027C14.0777 69.7897 12.6406 67.0964 12.6406 64.9107C12.6406 60.2607 18.8697 54.3287 29.2586 50.297C30.5626 49.7932 31.8795 49.332 33.2077 48.914C34.6437 54.1123 36.5271 59.5474 38.8 65.0436C36.4977 70.6217 34.5874 76.1433 33.1381 81.4026C32.1869 81.0996 31.2424 80.7705 30.3057 80.4158ZM35.8538 38.3806C33.6972 26.1136 35.1292 16.8605 38.733 14.5386C42.5719 12.0652 51.0596 15.5921 60.0059 24.4338C60.5776 24.999 61.152 25.5908 61.7273 26.2029C58.3941 30.1872 55.1001 34.723 51.9533 39.6664C46.557 40.2232 41.3913 41.1173 36.6424 42.315C36.3499 41.0109 36.0869 39.6988 35.8538 38.38V38.3806ZM85.3467 51.9836C84.225 49.827 83.0617 47.6975 81.8577 45.5967C85.5188 46.111 89.0261 46.795 92.3197 47.632C91.331 51.1596 90.0986 54.8482 88.6473 58.6295C87.587 56.39 86.4865 54.1742 85.3467 51.9836ZM65.1635 30.1018C67.4242 32.8279 69.6884 35.8721 71.9156 39.1747C67.3978 38.9371 62.8724 38.9359 58.3545 39.1713C60.5837 35.8993 62.8673 32.8595 65.1635 30.1018ZM44.8508 52.021C43.7253 54.1941 42.6454 56.3962 41.6121 58.6255C40.1847 54.8572 38.9635 51.1522 37.9662 47.5744C41.2399 46.7588 44.731 46.0924 48.3683 45.5865C47.1507 47.7004 45.9779 49.8458 44.8508 52.021ZM48.4729 84.6244C44.7153 84.1575 41.1714 83.525 37.8987 82.732C38.9117 79.0909 40.1599 75.3062 41.6177 71.4571C42.6553 73.688 43.74 75.8915 44.8706 78.0656C46.0244 80.2834 47.2255 82.4703 48.4729 84.6244ZM65.2991 100.105C62.9759 97.3147 60.6589 94.2286 58.3957 90.909C60.5924 91.0051 62.8322 91.0537 65.1087 91.0537C67.4475 91.0537 69.7595 90.9955 72.0349 90.8825C69.8007 94.2625 67.5445 97.3531 65.2991 100.105ZM88.694 71.261C90.2276 75.1519 91.5204 78.9163 92.5472 82.4958C89.2201 83.3408 85.6285 84.0213 81.8439 84.5266C83.0567 82.3865 84.2311 80.2198 85.3665 78.0277C86.5206 75.7999 87.6301 73.5438 88.694 71.261ZM81.1203 75.3023C79.3823 78.663 77.5465 81.96 75.6159 85.1879C72.2116 85.4586 68.6937 85.5983 65.1087 85.5983C61.5384 85.5983 58.0651 85.4745 54.7203 85.2331C52.7396 82.0127 50.8691 78.71 49.1127 75.3322C47.3646 71.9723 45.7317 68.5397 44.2176 65.0419C45.7279 61.543 47.3558 58.1085 49.098 54.7459V54.747C50.8397 51.3836 52.6955 48.0951 54.6614 44.8885C58.0737 44.6013 61.5724 44.451 65.1092 44.451C68.6617 44.451 72.1649 44.6025 75.5763 44.8919C77.5223 48.0935 79.3662 51.3706 81.1046 54.717C82.8528 58.0722 84.5025 61.4898 86.051 64.9644C84.5184 68.4744 82.874 71.9226 81.1208 75.3023H81.1203ZM91.232 14.3763C95.0739 16.8429 96.5684 26.7891 94.1543 39.8326C93.9961 40.6823 93.8241 41.5288 93.6384 42.3716C88.8784 41.149 83.7091 40.239 78.297 39.6738C75.1441 34.6767 71.8775 30.1329 68.5982 26.2001C69.4575 25.278 70.3373 24.3798 71.2367 23.5063C79.7077 15.3005 87.6246 12.0606 91.232 14.3763Z" fill="white"/>
<path d="M65.109 53.5063C70.7678 53.5063 75.3547 58.6125 75.3547 64.9108C75.3547 71.2095 70.7678 76.3157 65.109 76.3157C59.4507 76.3157 54.8633 71.2095 54.8633 64.9108C54.8633 58.6125 59.4507 53.5063 65.109 53.5063Z" fill="#53C1DE"/>
</svg>
